<svg width="980" height="360" viewBox="0 0 980 360" fill="none" xmlns="http://www.w3.org/2000/svg">
  <path d="M121 126c43-45 115-62 174-40 39 14 70 38 116 31 50-7 77-45 128-46 65-1 92 58 151 75 47 14 89-4 132 20 31 17 50 47 62 83" stroke="#D4AF37" stroke-opacity=".35" stroke-width="2"/>
  <path d="M168 209c70 19 121 3 181-41 40-29 85-49 136-35 55 15 82 65 139 71 63 7 111-42 170-19" stroke="#F5D77A" stroke-opacity=".28" stroke-width="2"/>
  <g fill="#D4AF37">
    <circle cx="121" cy="126" r="6"/>
    <circle cx="295" cy="86" r="5"/>
    <circle cx="411" cy="117" r="6"/>
    <circle cx="539" cy="71" r="5"/>
    <circle cx="690" cy="146" r="6"/>
    <circle cx="884" cy="249" r="5"/>
    <circle cx="168" cy="209" r="5"/>
    <circle cx="349" cy="168" r="6"/>
    <circle cx="485" cy="133" r="5"/>
    <circle cx="624" cy="204" r="6"/>
    <circle cx="794" cy="185" r="5"/>
  </g>
  <g opacity=".28" stroke="#B6BCC8">
    <path d="M128 164c45-3 86 7 132-13 35-15 56-43 93-53"/>
    <path d="M599 96c46 45 91 45 147 60 39 11 72 36 95 70"/>
    <path d="M280 235c45 12 86-15 125-33 34-16 68-11 101 4"/>
  </g>
  <defs>
    <filter id="blur"><feGaussianBlur stdDeviation="10"/></filter>
  </defs>
</svg>
